<svg width="141" height="40" viewBox="0 0 141 40" fill="none" xmlns="http://www.w3.org/2000/svg">
<path d="M13.3697 25.4626C6.36538 25.9538 1.15883 21.0911 0.68729 14.3422C0.220665 7.69154 4.90165 2.23939 11.6505 1.76785C17.2353 1.37491 20.3298 4.30728 20.3298 4.30728L18.5418 7.5491C18.5418 7.5491 15.7568 5.30929 12.1122 5.56471C7.26916 5.90363 4.67571 9.72013 4.97533 13.9787C5.28478 18.3355 8.49221 21.9752 13.2714 21.6412C17.2451 21.3661 19.7207 18.2717 19.7207 18.2717L22.1275 21.1205C22.1275 21.1205 19.2246 25.0549 13.3746 25.4626" fill="white"/>
<path d="M34.2793 23.6114L34.1516 21.7399C34.1025 21.0965 34.1319 20.5758 34.1319 20.5758H34.0681C33.3804 22.349 31.4059 24.2057 28.5914 24.4022C25.0696 24.6477 22.7512 23.0268 22.4368 18.5374L21.6951 7.94257L25.7965 7.65277L26.4793 17.4077C26.6168 19.4068 27.2308 20.7281 29.2692 20.5857C32.236 20.3794 33.7046 17.6435 33.4983 14.7111L32.9727 7.15667L37.0692 6.87179L38.2235 23.3412L34.2842 23.6163L34.2793 23.6114Z" fill="white"/>
<path d="M45.1198 23.0169C42.8603 23.1741 40.0065 22.791 39.6824 18.0756L38.4347 0.284887L42.5067 0L43.7052 17.1767C43.828 18.9843 44.4763 19.3969 45.5422 19.3183C45.8615 19.2937 46.1513 19.2446 46.1513 19.2446L46.4018 22.8303C46.4018 22.8303 45.7927 22.9678 45.1149 23.0169" fill="white"/>
<path d="M68.623 21.209L68.4953 19.3376C68.4511 18.6942 68.4756 18.1686 68.4756 18.1686H68.4118C67.7241 19.9418 65.7446 21.7985 62.935 21.9949C59.4133 22.2405 57.0949 20.6196 56.7805 16.1302L56.2697 8.80172L51.181 9.15537L51.6476 15.806C51.8392 18.5173 53.9955 18.7531 55.1252 18.6794C55.5771 18.6451 55.862 18.5616 55.862 18.5616L56.1125 22.1423C56.1125 22.1423 55.636 22.2749 54.8649 22.3289C52.5711 22.491 47.9687 22.1276 47.5806 16.6116L47.0796 9.44517L44.9479 9.59253L44.717 6.33106L46.9421 6.17388L46.6277 1.68446L50.6309 1.40448L50.9452 5.89391L60.1402 5.25045L60.823 15.0005C60.9654 17.0045 61.5745 18.3209 63.608 18.1784C66.5796 17.9721 68.0434 15.2411 67.8371 12.3039L67.3066 4.74945L71.408 4.46456L72.5623 20.934L68.6181 21.209H68.623Z" fill="white"/>
<path d="M78.3974 13.9744L78.8542 20.4973L74.7528 20.7871L73.5986 4.3177L77.5428 4.04264L77.7392 6.8866C77.7835 7.50058 77.7589 8.05562 77.7589 8.05562H77.8227C78.3974 5.6439 80.2394 3.63004 82.7542 3.45322C83.1423 3.42375 83.5058 3.46795 83.5058 3.46795L83.7857 7.50549C83.7857 7.50549 83.3584 7.47111 82.8132 7.50549C81.0695 7.62829 79.1686 8.76783 78.5644 11.2729C78.3631 12.0981 78.3287 13.0068 78.3974 13.9793" fill="white"/>
<path d="M109.961 13.4435C109.784 13.6302 109.583 13.7873 109.411 13.8807C109.274 13.9543 109.141 13.9986 109.003 14.0084C108.925 14.0133 108.846 14.0084 108.773 13.9838C108.571 13.92 108.443 13.7235 108.439 13.7235C107.844 12.8934 107.166 12.5839 106.793 12.4661C106.803 12.5741 106.818 12.7067 106.827 12.8639C106.921 14.1901 106.931 17.1028 105.55 19.6816C104.406 21.941 102.574 23.7191 100.265 24.9421C98.7081 25.787 97.0823 26.1947 95.4958 26.3027C92.3178 26.5287 89.2823 25.5659 87.1358 24.5394C85.4118 23.7289 83.2702 21.887 81.944 20.4232C82.2092 21.2484 82.8281 22.5403 84.12 23.3851C85.0287 23.9794 85.7556 24.2299 86.0552 24.3183C86.1535 24.3429 86.3106 24.3773 86.3106 24.3773L86.3598 24.4755C86.3598 24.4755 86.625 24.9913 86.6594 25.4088C86.6594 25.5119 86.6594 25.62 86.6054 25.728C86.5513 25.8459 86.4089 25.9343 86.2714 25.9393C86.2566 25.9393 86.2468 25.9393 86.2271 25.9393C85.9521 25.9294 85.4511 25.7968 84.7929 25.5168C84.1445 25.2369 83.3635 24.7948 82.6317 24.1661C80.7308 22.5403 80.5933 20.4331 80.549 19.8633C80.549 19.8633 80.549 19.8633 80.549 19.8436C80.5343 19.5637 80.6326 19.2395 80.7504 18.935C80.8781 18.6304 81.0058 18.3701 81.1532 18.2227C81.2072 18.1638 81.2956 18.1098 81.3939 18.1049C81.5953 18.1049 81.6984 18.2129 81.8016 18.3062C81.9096 18.4045 82.0226 18.5322 82.1552 18.6746C83.059 19.6177 84.9108 21.6512 87.6319 23.056C89.9307 24.2398 92.4308 24.7113 94.8278 24.5443C95.0734 24.5246 95.3239 24.5001 95.5695 24.4706C98.2415 24.1317 100.295 23.0216 102.171 20.9243C104.484 18.3406 104.627 15.0841 104.509 13.414C104.484 13.0751 104.45 12.805 104.421 12.6134C104.421 12.5839 104.411 12.5545 104.406 12.5299C103.915 12.5889 103.625 12.6429 103.625 12.6429C103.541 12.6576 103.473 12.6724 103.404 12.6773C103.276 12.6871 103.134 12.6625 103.031 12.579C102.942 12.5152 102.829 12.3727 102.819 12.1713C102.814 12.0977 102.819 12.024 102.834 11.9454C102.868 11.7882 102.918 11.6212 103.011 11.469C103.104 11.3216 103.261 11.189 103.463 11.1399C104.342 10.9237 105.005 10.8059 105.595 10.7666C106.12 10.7322 106.587 10.7518 107.098 10.8059C108.551 10.9679 109.691 11.6556 110.192 12.4906C110.236 12.5692 110.261 12.6527 110.266 12.7362C110.28 13.026 110.123 13.247 109.956 13.4386" fill="white"/>
<path d="M90.623 16.8476C88.9431 16.9655 88.0639 15.9881 87.9853 14.8927C87.8281 12.5989 91.1977 12.0733 93.295 11.926L94.0072 11.8768L94.0367 12.2649C94.1742 14.2689 92.7891 16.7003 90.6279 16.8525M97.8532 8.82168C97.5585 4.65643 94.8766 2.4461 90.5493 2.74573C86.6395 3.02079 84.2327 5.23112 84.2327 5.23112L85.9862 8.06034C85.9862 8.06034 88.0394 6.32646 90.397 6.16437C92.2046 6.03666 93.6143 6.68503 93.7666 8.85115L93.7862 9.07709L93.2312 9.11639C90.5542 9.30304 83.5057 10.1528 83.8741 15.379C84.105 18.6748 86.8802 20.3301 89.8224 20.1238C93.5652 19.8635 94.6556 16.8673 94.6212 16.8673H94.6851C94.6851 16.8673 94.6556 17.383 94.6998 18.0314L94.7981 19.3871L98.5753 19.1218L97.8532 8.82168Z" fill="white"/>
<path d="M106.768 38.5586H111.155V39.8897H105.133V27.3595H106.768V38.5586Z" fill="white"/>
<path d="M116.292 39.1967C115.334 38.6515 114.573 37.8902 114.018 36.9127C113.463 35.9352 113.183 34.835 113.183 33.6119C113.183 32.3889 113.463 31.2886 114.018 30.3112C114.573 29.3337 115.334 28.5724 116.292 28.0272C117.25 27.482 118.311 27.2118 119.475 27.2118C120.639 27.2118 121.715 27.4869 122.673 28.0272C123.631 28.5724 124.387 29.3288 124.937 30.3014C125.487 31.2739 125.762 32.3742 125.762 33.607C125.762 34.8399 125.487 35.9451 124.937 36.9127C124.387 37.8852 123.631 38.6417 122.673 39.1869C121.715 39.7321 120.649 40.0022 119.475 40.0022C118.301 40.0022 117.25 39.7321 116.292 39.1869V39.1967ZM121.838 37.9835C122.54 37.5758 123.09 36.9962 123.493 36.2398C123.896 35.4834 124.097 34.609 124.097 33.6169C124.097 32.6247 123.896 31.7307 123.493 30.9841C123.09 30.2375 122.545 29.6579 121.848 29.2502C121.15 28.8425 120.359 28.6412 119.475 28.6412C118.591 28.6412 117.795 28.8475 117.103 29.2502C116.405 29.6579 115.86 30.2375 115.457 30.9841C115.054 31.7356 114.853 32.6099 114.853 33.6169C114.853 34.6238 115.054 35.4883 115.457 36.2398C115.86 36.9962 116.41 37.5758 117.113 37.9835C117.815 38.3912 118.601 38.5926 119.475 38.5926C120.349 38.5926 121.135 38.3912 121.838 37.9835Z" fill="white"/>
<path d="M138.312 30.9891C137.964 30.2573 137.463 29.6924 136.804 29.2896C136.146 28.8869 135.38 28.6855 134.506 28.6855C133.631 28.6855 132.841 28.8869 132.143 29.2896C131.441 29.6924 130.891 30.2671 130.488 31.0137C130.085 31.7652 129.884 32.6297 129.884 33.6121C129.884 34.5944 130.085 35.4589 130.488 36.2006C130.891 36.9423 131.441 37.517 132.143 37.9148C132.845 38.3176 133.631 38.519 134.506 38.519C135.729 38.519 136.736 38.1555 137.526 37.4237C138.317 36.6918 138.779 35.7045 138.912 34.4569H133.916V33.1258H140.655V34.3832C140.557 35.4147 140.238 36.3578 139.683 37.2124C139.133 38.0671 138.406 38.7449 137.507 39.241C136.608 39.7371 135.606 39.9876 134.506 39.9876C133.342 39.9876 132.281 39.7175 131.323 39.1723C130.365 38.6271 129.604 37.8706 129.049 36.8981C128.494 35.9255 128.214 34.8302 128.214 33.6071C128.214 32.3841 128.494 31.2838 129.049 30.3064C129.604 29.3289 130.365 28.5676 131.323 28.0224C132.281 27.4772 133.342 27.207 134.506 27.207C135.837 27.207 137.011 27.5361 138.037 28.1943C139.064 28.8525 139.806 29.7808 140.277 30.9793H138.317L138.312 30.9891Z" fill="white"/>
</svg>
